<?xml version="1.0" encoding="UTF-8" standalone="no"?>
<!-- Created with Inkscape (http://www.inkscape.org/) -->

<svg
   width="5.2356992in"
   height="1.9307013in"
   viewBox="0 0 132.98676 49.039812"
   version="1.1"
   id="svg5"
   inkscape:version="1.1.2 (0a00cf5339, 2022-02-04)"
   sodipodi:docname="cri-dockerd.svg"
   xmlns:inkscape="http://www.inkscape.org/namespaces/inkscape"
   xmlns:sodipodi="http://sodipodi.sourceforge.net/DTD/sodipodi-0.dtd"
   xmlns="http://www.w3.org/2000/svg"
   xmlns:svg="http://www.w3.org/2000/svg">
  <sodipodi:namedview
     id="namedview7"
     pagecolor="#ffffff"
     bordercolor="#666666"
     borderopacity="1.0"
     inkscape:pageshadow="2"
     inkscape:pageopacity="0.0"
     inkscape:pagecheckerboard="0"
     inkscape:document-units="mm"
     showgrid="false"
     inkscape:zoom="0.69664703"
     inkscape:cx="224.64748"
     inkscape:cy="106.94081"
     inkscape:window-width="1850"
     inkscape:window-height="1016"
     inkscape:window-x="0"
     inkscape:window-y="0"
     inkscape:window-maximized="1"
     inkscape:current-layer="layer1"
     units="in"
     showborder="true"
     inkscape:showpageshadow="true" />
  <defs
     id="defs2" />
  <g
     inkscape:label="Layer 1"
     inkscape:groupmode="layer"
     id="layer1"
     transform="translate(-45.544926,-120.16731)">
    <g
       id="g1054">
      <g
         style="fill:#000000"
         id="g367"
         transform="matrix(0.55925536,0,0,0.55925536,98.475333,131.792)">
        <g
           id="g356">
          <g
             id="g354">
            <path
               d="m 1.788,16.945 c 0.388,0.385 0.913,0.601 1.459,0.601 L 30.74,17.511 v 3.831 c 0.003,0.836 0.556,1.586 1.329,1.904 0.771,0.314 1.658,0.135 2.246,-0.459 l 9.091,-9.18 c 1.062,-1.071 1.06,-2.801 -0.009,-3.868 L 34.26,0.605 C 33.67,0.014 32.781,-0.163 32.01,0.159 31.24,0.478 30.739,1.233 30.74,2.067 V 5.9 L 3.219,5.937 C 2.08,5.94 1.161,6.864 1.163,8.004 l 0.018,7.483 c 10e-4,0.547 0.22,1.073 0.607,1.458 z"
               id="path350" />
            <path
               d="M 42.146,27.901 14.624,27.866 14.623,24.032 c 0.002,-0.835 -0.5,-1.587 -1.27,-1.907 -0.771,-0.321 -1.66,-0.146 -2.25,0.445 L 1.967,31.705 C 0.9,32.769 0.896,34.501 1.958,35.571 l 9.09,9.181 c 0.588,0.596 1.475,0.772 2.247,0.458 0.772,-0.316 1.326,-1.066 1.329,-1.904 v -3.83 l 27.493,0.035 c 0.547,0 1.072,-0.216 1.459,-0.602 0.387,-0.386 0.605,-0.91 0.607,-1.456 L 44.2,29.97 c 0.003,-1.14 -0.916,-2.067 -2.054,-2.069 z"
               id="path352" />
          </g>
        </g>
      </g>
      <g
         style="fill:none"
         id="g582"
         transform="matrix(3.3920173,0,0,3.3920173,127.65185,117.30308)">
        <path
           fill="#326de6"
           d="M 4.5,14.569 C 4.714,14.847 5.039,15 5.374,15 h 5.251 c 0.335,0 0.66,-0.165 0.875,-0.434 l 3.258,-4.178 C 14.972,10.11 15.046,9.755 14.972,9.41 L 13.807,4.203 A 1.128,1.128 0 0 0 13.201,3.426 L 8.487,1.116 A 1.062,1.062 0 0 0 8.002,1 C 7.834,1 7.667,1.038 7.517,1.115 L 2.802,3.435 A 1.129,1.129 0 0 0 2.197,4.212 L 1.032,9.42 c -0.084,0.345 0,0.7 0.214,0.978 l 3.254,4.17 z"
           id="path570" />
        <path
           fill="#ffffff"
           fill-rule="evenodd"
           d="m 12.741,9.128 c 0.098,0.002 0.196,0.01 0.293,0.024 l 0.058,0.013 0.031,0.008 a 0.308,0.308 0 0 1 0.26,0.371 0.306,0.306 0 0 1 -0.396,0.223 H 12.983 L 12.98,9.766 12.977,9.764 a 1.58,1.58 0 0 0 -0.03,-0.006 l -0.05,-0.01 A 2.55,2.55 0 0 1 12.623,9.642 2.867,2.867 0 0 0 12.09,9.485 0.242,0.242 0 0 0 11.919,9.549 4.656,4.656 0 0 0 11.788,9.526 3.971,3.971 0 0 1 10.024,11.738 c 0.015,0.042 0.032,0.083 0.051,0.123 a 0.239,0.239 0 0 0 -0.023,0.18 c 0.074,0.17 0.165,0.332 0.271,0.484 0.06,0.078 0.114,0.16 0.164,0.244 l 0.028,0.057 0.012,0.025 a 0.306,0.306 0 0 1 -0.381,0.44 0.308,0.308 0 0 1 -0.172,-0.18 l -0.01,-0.02 A 1.57,1.57 0 0 1 9.936,13.033 2.546,2.546 0 0 1 9.847,12.753 2.837,2.837 0 0 0 9.637,12.241 0.242,0.242 0 0 0 9.481,12.146 L 9.451,12.093 9.416,12.029 A 3.97,3.97 0 0 1 6.593,12.022 l -0.07,0.125 a 0.25,0.25 0 0 0 -0.132,0.064 2.13,2.13 0 0 0 -0.237,0.548 2.518,2.518 0 0 1 -0.088,0.28 1.196,1.196 0 0 1 -0.025,0.05 l -0.013,0.027 v 0.001 A 0.306,0.306 0 0 1 5.607,13.29 0.308,0.308 0 0 1 5.434,12.976 0.306,0.306 0 0 1 5.475,12.856 l 0.014,-0.03 0.026,-0.052 c 0.05,-0.085 0.104,-0.166 0.164,-0.244 0.108,-0.156 0.2,-0.322 0.277,-0.496 A 0.302,0.302 0 0 0 5.928,11.861 L 5.984,11.728 A 3.972,3.972 0 0 1 4.22,9.532 L 4.086,9.555 A 0.34,0.34 0 0 0 3.91,9.493 2.871,2.871 0 0 0 3.377,9.649 C 3.287,9.689 3.196,9.724 3.103,9.754 A 1.017,1.017 0 0 1 3.053,9.765 L 3.023,9.772 H 3.02 L 3.018,9.774 H 3.013 A 0.308,0.308 0 0 1 2.616,9.425 0.306,0.306 0 0 1 2.877,9.18 L 2.882,9.179 H 2.884 L 2.89,9.177 C 2.914,9.171 2.944,9.163 2.966,9.159 3.063,9.146 3.161,9.138 3.259,9.136 3.445,9.123 3.629,9.093 3.808,9.046 A 0.422,0.422 0 0 0 3.939,8.913 L 4.067,8.876 A 3.938,3.938 0 0 1 4.692,6.124 L 4.594,6.037 A 0.338,0.338 0 0 0 4.532,5.861 2.854,2.854 0 0 0 4.077,5.542 2.557,2.557 0 0 1 3.823,5.394 L 3.775,5.356 3.76,5.343 3.756,5.34 A 0.323,0.323 0 0 1 3.68,4.89 0.295,0.295 0 0 1 3.924,4.783 0.365,0.365 0 0 1 4.137,4.863 L 4.159,4.88 C 4.175,4.893 4.193,4.906 4.205,4.917 4.277,4.984 4.344,5.056 4.407,5.13 4.532,5.267 4.67,5.392 4.819,5.502 4.875,5.532 4.94,5.538 5.001,5.52 l 0.11,0.078 A 3.938,3.938 0 0 1 7.663,4.374 L 7.671,4.245 A 0.332,0.332 0 0 0 7.77,4.087 2.844,2.844 0 0 0 7.736,3.534 2.56,2.56 0 0 1 7.694,3.244 V 3.162 3.157 A 0.306,0.306 0 0 1 8,2.82 0.308,0.308 0 0 1 8.306,3.157 V 3.244 A 2.529,2.529 0 0 1 8.265,3.534 2.85,2.85 0 0 0 8.23,4.087 0.242,0.242 0 0 0 8.33,4.24 v 0.007 l 0.007,0.129 c 0.967,0.088 1.87,0.522 2.54,1.223 l 0.116,-0.082 a 0.34,0.34 0 0 0 0.186,-0.02 c 0.149,-0.11 0.287,-0.236 0.412,-0.373 0.063,-0.075 0.13,-0.146 0.202,-0.213 l 0.051,-0.04 0.017,-0.014 a 0.307,0.307 0 1 1 0.381,0.477 l -0.024,0.02 c -0.015,0.012 -0.03,0.025 -0.043,0.034 a 2.537,2.537 0 0 1 -0.254,0.148 2.87,2.87 0 0 0 -0.455,0.32 0.241,0.241 0 0 0 -0.058,0.172 L 11.358,6.072 11.3,6.125 c 0.542,0.806 0.77,1.783 0.637,2.745 l 0.123,0.036 c 0.031,0.055 0.077,0.101 0.133,0.132 0.179,0.048 0.363,0.078 0.548,0.09 z M 7.291,5.24 C 7.398,5.216 7.507,5.197 7.617,5.184 l -0.09,1.6 -0.008,0.004 A 0.268,0.268 0 0 1 7.226,7.044 0.27,0.27 0 0 1 7.091,6.994 L 7.089,6.995 5.773,6.065 C 6.192,5.655 6.718,5.369 7.291,5.24 Z M 8.909,6.99 10.217,6.066 A 3.182,3.182 0 0 0 8.384,5.184 l 0.09,1.598 H 8.476 A 0.268,0.268 0 0 0 8.77,7.038 0.27,0.27 0 0 0 8.905,6.988 Z M 11.157,8.646 9.609,8.2 9.607,8.194 A 0.27,0.27 0 0 1 9.422,7.851 0.27,0.27 0 0 1 9.502,7.731 L 9.5,7.73 10.695,6.663 c 0.366,0.594 0.527,1.29 0.46,1.983 z M 9.096,9.5 9.714,10.99 A 3.148,3.148 0 0 0 10.989,9.392 L 9.396,9.123 9.394,9.126 A 0.26,0.26 0 0 0 9.228,9.149 0.27,0.27 0 0 0 9.098,9.497 Z m -0.385,1.905 c -0.573,0.13 -1.17,0.1 -1.727,-0.088 l 0.777,-1.4 H 7.762 A 0.27,0.27 0 0 1 8.237,9.916 h 0.006 l 0.779,1.402 A 3.286,3.286 0 0 1 8.711,11.405 Z M 6.293,10.983 6.904,9.509 6.9,9.503 A 0.268,0.268 0 0 0 6.603,9.133 L 6.6,9.13 5.021,9.397 a 3.16,3.16 0 0 0 1.272,1.586 z M 5.296,6.663 6.497,7.734 6.496,7.741 A 0.269,0.269 0 0 1 6.39,8.203 L 6.389,8.208 4.849,8.651 A 3.134,3.134 0 0 1 5.296,6.663 Z m 2.95,1.154 H 7.754 L 7.447,8.197 7.557,8.673 8,8.886 8.442,8.674 8.552,8.198 Z"
           clip-rule="evenodd"
           id="path572" />
      </g>
      <g
         style="fill:none"
         id="g884"
         transform="matrix(1.7514219,0,0,1.7514219,42.042082,116.66447)">
        <circle
           cx="16"
           cy="16"
           r="14"
           fill="#1794d4"
           id="circle845" />
        <path
           d="m 18,7 h -2 v 2 h 2 z"
           fill="#ffffff"
           id="path847" />
        <path
           d="m 10,10 h 2 v 2 h -2 z"
           fill="#ffffff"
           id="path849" />
        <path
           d="M 6.00155,16.9414 C 6.17244,19.8427 7.90027,24 14,24 c 6.8,0 9.8333,-5 10.5,-7.5 0.8333,0 2.7,-0.5 3.5,-2.5 -0.5,-0.5 -2.5,-0.5 -3.5,0 0,-0.8 -0.5,-2.5 -1.5,-3 -0.6667,0.6667 -1.7,2.4 -0.5,4 -0.5,1 -1.8333,1 -2.5,1 H 6.9429 c -0.52948,0 -0.97249,0.4128 -0.94135,0.9414 z"
           fill="#ffffff"
           id="path851" />
        <path
           d="M 9,13 H 7 v 2 h 2 z"
           fill="#ffffff"
           id="path853" />
        <path
           d="m 10,13 h 2 v 2 h -2 z"
           fill="#ffffff"
           id="path855" />
        <path
           d="m 15,13 h -2 v 2 h 2 z"
           fill="#ffffff"
           id="path857" />
        <path
           d="m 16,13 h 2 v 2 h -2 z"
           fill="#ffffff"
           id="path859" />
        <path
           d="m 21,13 h -2 v 2 h 2 z"
           fill="#ffffff"
           id="path861" />
        <path
           d="m 15,10 h -2 v 2 h 2 z"
           fill="#ffffff"
           id="path863" />
        <path
           d="m 16,10 h 2 v 2 h -2 z"
           fill="#ffffff"
           id="path865" />
      </g>
    </g>
  </g>
</svg>
